Patient4_TMGait_0pt2_01_right_24_EMG.mot
version=1
nRows=23
nColumns=33
inDegrees=no
endheader
time	1LAddLong	2LGlutMax	3LGlutMed	4LIliopsoas	5LSemiMemb	6LBicFemLong	7LRecFem	8LVastMed	9LVastLat	10LGasMed	11LTibAnt	12lTibPost	13LPeroneusLong	14LSol	15LExtDigLong	16LFlexDigLong	17RAddLong	18RGlutMax	19RGlutMed	20RIliopsoas	21RSemiMemb	22RBicFemLong	23RRecFem	24RVastMed	25RVastLat	26RGasMed	27RTibAnt	28RTibPost	29RPeroneusLong	30RSol	31RExtDigLong	32RFlexDigLong
53.88	-0.025024	0.20462	0.14542	0.000763	0.055237	0.045166	0.19714	0.001984	0.11719	-0.035553	-0.03006	-0.042267	0.97382	0.026398	-0.10773	-0.001068	-0.1001	-0.25497	0.3865	0.10712	-0.10071	-0.020905	0.12497	0.13184	0.049133	0.007019	0.57632	-0.005951	0.18524	-0.31876	-0.000916	-0.009766
53.881	-0.014801	0.19714	0.093231	0.014648	-0.003357	0.040131	0.27542	0.020752	0.13779	-0.039368	-0.049438	-0.045929	0.52155	0.15213	-0.007629	-0.001373	-0.084381	-0.25589	0.45548	0.10422	-0.083618	-0.013123	0.1593	0.12878	0.02182	0.001068	0.39978	-0.007019	-0.012054	-0.1976	-0.000763	-0.019226
53.882	-0.013885	0.16464	0.11276	0.016479	-0.029755	-0.048828	0.25909	0.011292	0.14252	-0.055237	-0.014343	-0.042725	0.028839	0.058746	-0.037842	-0.016327	-0.063019	-0.18234	0.76263	0.010071	-0.076752	-0.033417	0.14999	0.15488	0.013123	-0.015564	0.40909	-0.007019	-0.2002	-0.046082	-0.001678	-0.014801
53.883	-0.00824	0.11765	0.042114	0.010376	-0.011444	-0.14755	0.14404	0.005646	0.049896	-0.022888	0.001373	-0.044708	-0.52933	-0.020752	-0.085754	-0.018005	-0.055389	-0.25055	0.58182	-0.10651	-0.087891	-0.061188	0.17639	0.14145	0.01236	-0.013733	-0.41641	-0.007477	-0.10529	0.11047	0.001984	-0.013733
53.884	0.014648	0.13748	0.15289	0.019836	0.047455	-0.13519	0.037537	-0.000763	-0.046692	0.010834	0.0177	-0.038757	-0.85098	0.005646	-0.030823	-0.011139	-0.056915	-0.27618	0.39566	-0.031586	-0.075531	-0.093079	0.16296	0.098419	0.001221	-0.014191	-0.6546	-0.008392	0.018921	0.18448	0	0.000305
53.885	0.026245	0.14954	0.17838	0.02655	0.021362	-0.078278	-0.12787	0.016632	0.052032	0.016785	-0.002747	-0.033417	0.24933	0.068054	-0.031433	-0.014496	-0.022583	-0.20966	0.17899	-0.059814	-0.079651	-0.097961	0.14755	0.10834	0.013123	-0.014801	-0.33112	-0.00412	0.063171	0.16022	-0.001678	-0.005951
53.886	0.021515	0.12268	0.15656	-0.006104	0.000458	-0.032349	-0.088959	0.028229	0.24994	-0.011139	-0.020447	-0.023346	0.90332	-0.002747	0.055542	-0.013733	-0.018005	-0.13153	0.24506	-0.022278	-0.078735	-0.11597	0.21057	0.084991	-0.009003	-0.011902	-0.21545	-0.005035	0.021667	0.10727	0.000916	-0.007629
53.887	0.005951	0.029449	0.11078	-0.021973	-0.008392	0.012512	-0.096436	0.018768	0.42541	-0.04425	-0.017548	-0.0177	0.018921	0.069733	0.10101	-0.01236	0.00061	-0.078583	0.38818	0.015106	-0.085449	-0.1297	0.17166	0.035248	-0.018311	-0.012817	-0.168	-0.001373	0.014954	0.087128	-0.000916	-0.00351
53.888	-0.009766	-0.009155	-0.082855	-0.018921	-0.02533	0.052795	-0.084381	-0.002899	0.42328	-0.04303	-0.021667	-0.019531	-0.30182	0.092621	-0.020142	-0.026093	-0.00351	-0.091705	0.41382	-0.001221	-0.090332	-0.12787	0.22064	0.08255	-0.007324	-0.012207	-0.012665	-0.003662	0.062103	0.072632	0.001526	-0.003204
53.889	0.004425	-0.018005	-0.18005	-0.019226	-0.018158	0.045776	-0.15457	-0.014343	0.21423	-0.019379	0.01709	-0.014954	-0.15625	0.14847	0.049438	-0.024109	0.016022	-0.089417	0.242	-0.05722	-0.090485	-0.13702	0.19196	0.028839	-0.019073	-0.005188	-0.083466	-0.006561	0.092621	0.0737	0.001678	-0.007935
53.89	0.005035	0.000763	-0.071869	0.007019	0.010376	0.036926	-0.093536	-0.048676	-0.067444	-0.047607	0.005798	-0.011444	0.29984	0.19959	0.10117	-0.001678	0.031738	-0.050812	0.1297	-0.093842	-0.084381	-0.12848	0.20874	0.040894	-0.014343	-0.007324	-0.13336	-0.003662	0.069427	-0.02182	0.000458	-0.007019
53.891	0.003967	0.028839	0.001678	0.041351	0.01358	0.099945	-0.16403	-0.040741	-0.40512	-0.048523	0.040131	-0.007782	-0.22308	0.093842	0.086517	0.012512	0.043488	-0.054779	0.10925	-0.071411	-0.065918	-0.12222	0.17364	0.001831	-0.003052	-0.011292	0.25421	-0.001373	-0.035553	-0.050049	0.000153	-0.00885
53.892	0.00885	0.021362	0.001068	0.013275	0.008087	0.13092	-0.14847	-0.010834	-0.39307	-0.040894	0.020142	-0.002136	-0.21393	-0.21164	-0.057678	0.001526	0.029297	-0.071106	0.12955	-0.035248	-0.040131	-0.1059	0.17868	-0.000763	0.002289	-0.010681	0.31769	0.007935	0.00351	-0.072021	0.001373	-0.010376
53.893	-0.005341	0.011902	-0.050659	0.000916	-0.008392	0.11185	0.008698	0.011902	-0.17914	-0.054321	-0.009308	-0.000458	-0.18021	-0.43823	-0.094452	-0.002899	0.045776	-0.049286	-0.079346	0.049438	-0.032501	-0.097046	0.11948	0.006866	0.016479	-0.006714	0.29602	0.001373	0.048981	-0.069275	-0.000458	-0.011597
53.894	0.005951	0.021515	-0.059509	-0.011749	-0.028381	0.057373	0.047302	0.016785	-0.090179	-0.030212	-0.000763	0.001068	-0.17059	-0.44205	-0.026703	-0.003662	0.060425	-0.057678	0.022583	0.067291	-0.015106	-0.08316	0.1062	-0.008392	0.015869	-0.006561	0.077515	0.000153	0.040741	-0.085602	0.001831	-0.017853
53.895	-0.001831	0.01297	-0.13397	-0.009766	-0.044861	0.00885	0.038757	0.007477	-0.049286	-0.040741	-0.023193	0.003357	-0.00412	-0.16785	-0.015106	-0.009766	0.062561	-0.091858	-0.05188	0.055237	-0.00946	-0.071411	0.10651	-0.005798	0.041199	0.000763	-0.12848	-0.001526	0.027313	-0.096588	0.001984	-0.014648
53.896	0.0177	0.027008	-0.13412	-0.00412	-0.002441	-0.044861	0.037079	0.003815	-0.087128	-0.030823	-0.039368	0.007629	0.19165	-0.013123	0.10483	-0.004425	0.050812	-0.064392	-0.13275	-0.046692	-0.007935	-0.07019	0.10437	-0.026093	0.032196	0.006409	-0.30045	-0.000916	-0.001526	-0.099335	-0.002136	-0.00946
53.897	0.077362	0.025787	-0.17227	-0.005341	0.06012	-0.14877	0.017242	0.029907	-0.089417	-0.036469	-0.041046	0.011139	-0.015106	0.12848	0.13748	0.00412	0.068207	-0.04425	-0.16876	-0.22827	0.003204	-0.059509	0.075684	-0.005341	0.046997	-0.010223	0.084991	-0.000763	-0.071259	-0.058594	0.002899	-0.011444
53.898	0.053558	-0.009613	-0.27573	0.003204	0.036774	-0.15167	0.011597	0.027313	-0.002747	-0.069275	-0.04715	0.015564	-0.054169	0.074615	0.19623	0.011292	0.047913	-0.036163	-0.26337	-0.25101	0.012665	-0.05661	0.062866	0.025177	0.06012	-0.01236	-0.11963	0.004883	-0.044708	-0.016785	-0.00061	-0.006409
53.899	-0.074615	0.039825	-0.18051	-0.015717	0.00946	-0.077057	0.069427	0.031281	-0.001831	-0.021667	-0.004883	0.01236	-0.030975	0.0354	-0.050964	0.014343	0.018005	0.009613	-0.10468	-0.10742	0.032349	-0.05188	0.048676	0.00351	0.065308	-0.007629	-0.21164	-0.001984	0.031281	-0.058136	0.001984	-0.008392
53.9	-0.051117	0.077972	-0.032349	0.006866	-0.020599	-0.010071	0.050049	0.026703	-0.046692	0.052185	0.017853	0.015259	-0.093689	0.046997	-0.2327	0.013275	-0.000153	-0.002136	-0.003815	0.19638	0.036316	-0.044861	0.067902	0.028534	0.060577	-0.015259	0.020752	-0.003357	-0.10727	-0.08255	-0.001526	-0.005798
53.901	-0.028992	0.041809	-0.080109	0.016327	-0.063019	0.15015	0.049438	0.030518	-0.083313	0.15854	0.016327	0.01297	-0.14801	0.067444	0.012207	0.02243	-0.014954	-0.007019	-0.092468	0.32074	0.045776	-0.047607	0.051575	0.037079	0.046692	-0.015717	0.065613	-0.001831	-0.19775	-0.022888	-0.001221	-0.004272
53.902	0.024109	0.029144	-0.058746	0.027313	-0.071106	0.20294	0.022888	0.039063	-0.055847	0.19333	0.028076	0.007019	-0.092926	0.040741	-0.061951	0.013733	-0.01297	-0.02182	-0.092926	0.20309	0.067596	-0.035248	0.10819	0.027618	0.035553	-0.008392	-0.095215	0.000305	-0.1033	-0.039063	0.000305	-0.014496
